<svg xmlns="http://www.w3.org/2000/svg" viewBox="0 0 466.44 309.15"><g id="Layer_2" data-name="Layer 2"><g id="Layer_1-2" data-name="Layer 1"><path d="M466.44,229.22c-.92,8.11-1.32,16.32-2.91,24.3-2.18,10.93-4.08,22.15-8.18,32.41-9.15,22.94-36,29.28-55.05,16.93-16.94-11-31.4-24.81-45.29-39.26-7.89-8.21-15.49-16.69-22.91-25.32s-16.56-12.77-27.91-12.75q-70.81.12-141.62,0c-11.5,0-20.76,4.22-28.28,13C117,258.68,98.94,278.18,77.94,294.66c-7.52,5.9-15.21,11.81-24.85,13.71-17.33,3.41-32.89-4.52-41.23-20.51C6.28,277.16,4.62,265.44,3,253.75a309.19,309.19,0,0,1-1.82-69.46C5.61,131.82,20.55,82.92,52,40,66.12,20.79,84.44,7,108.38,2c21.41-4.49,42-.94,61.69,7.68a200.07,200.07,0,0,1,25.45,13.92c8.74,5.47,17.94,8.69,28.24,8.69,5.92,0,11.84-.06,17.76,0a51.16,51.16,0,0,0,30.31-9.34C291.22,9.66,312.51,1.27,336.12.13c24.18-1.18,45.21,7,63.2,23.13,16.35,14.66,27.42,33.07,37,52.48a290.42,290.42,0,0,1,28.4,101.35c.48,4.94,1.15,9.86,1.73,14.79ZM113,137.14c0,9.16.19,17.65-.09,26.11-.13,3.63,1.28,5.59,4.36,7,7.15,3.37,14.32,3.1,21.67.74,4.31-1.39,6.74-3.37,6.35-8.68-.59-8.24-.15-16.57-.15-25.2,9.87,0,19.1.09,28.34-.08,1.54,0,4.05-.79,4.43-1.84,1.77-4.77,4.17-9.82,4-14.68A28,28,0,0,0,176.74,106c-1.37-1.9-6.69-1.15-10.22-1.24-6.61-.15-13.23,0-20,0,0-9.76-.08-18.84,0-27.91,0-2.48-.64-3.83-3.12-4.68a42.06,42.06,0,0,0-25-1c-3.33.9-4.51,2.49-4.4,6,.28,9,.09,18.1.09,27.56-9.8,0-19,.12-28.24-.07-2.92-.06-4.4,1-5.41,3.6a33.83,33.83,0,0,0-.14,24.42c1.16,3.22,3,4.71,6.72,4.58C95.48,136.94,104,137.14,113,137.14ZM386.82,89.6a24.87,24.87,0,0,0-25.16,25.06,25.13,25.13,0,1,0,50.25,0A24.8,24.8,0,0,0,386.82,89.6ZM324.15,52.27a24.78,24.78,0,0,0-25.39,24.3c-.2,14.3,10.75,25.81,24.78,26a25.38,25.38,0,0,0,25.47-25A24.9,24.9,0,0,0,324.15,52.27ZM323.82,172a25.13,25.13,0,1,0-25.06-25A25,25,0,0,0,323.82,172Z"/></g></g></svg>