<svg xmlns="http://www.w3.org/2000/svg" viewBox="0 0 359.31 359.31"><g id="Layer_2" data-name="Layer 2"><g id="Layer_1-2" data-name="Layer 1"><path d="M251.52.11c8.94,0,17.53-.26,26.08.17,2.31.12,4.95,1.88,6.71,3.62Q320.05,39.35,355.56,75a12.65,12.65,0,0,1,3.75,9.43q-.06,119.58-.05,239.15a35.68,35.68,0,0,1-35.68,35.69c-7.86,0-15.71,0-24.16,0v-4.43q0-51.08,0-102.17c0-17.65-10.58-31.57-27.14-35.82a41.72,41.72,0,0,0-10.33-1.24q-82.35-.1-164.68,0c-21.86,0-37.35,15.64-37.37,37.59q-.08,50.54,0,101.05v4.71a17.7,17.7,0,0,1-2.56.34c-9.46-.21-19.07.52-28.35-.89C12.14,355.84,0,340.8,0,323.86Q0,179.58,0,35.3C.05,16.18,16,.15,35,.06c24.06-.12,48.13,0,72.76,0V93.2c0,16.68,9.86,26.58,26.46,26.59h90.94c16.38,0,26.34-10,26.34-26.33q0-44.53,0-89.07Z"/><path d="M275.44,359.14H83.85V355q0-50.87,0-101.75c0-9.25,4.46-13.69,13.76-13.69H261.82c9,0,13.62,4.55,13.62,13.48q0,51.06,0,102.12Z"/><path d="M227.37.29V95.61H132.05V.29Z"/></g></g></svg>