<svg xmlns="http://www.w3.org/2000/svg" viewBox="0 0 335.37 335.45"><g id="Layer_2" data-name="Layer 2"><g id="Layer_1-2" data-name="Layer 1"><path d="M36,107.81c-4.42,0-8.39,0-12.35,0A23.74,23.74,0,0,1,.05,84.22Q0,71.88.05,59.53A23.72,23.72,0,0,1,23.65,36c4,0,7.92,0,12.31,0,0-8.25-.05-16.19,0-24.12A12,12,0,0,1,46,.12,12.09,12.09,0,0,1,59.49,8.83a17.74,17.74,0,0,1,.38,4.44c0,7.45,0,14.9,0,22.71,4.31,0,8.27,0,12.22,0a23.72,23.72,0,0,1,23.7,23.82q.07,12.16,0,24.32A23.73,23.73,0,0,1,72,107.81c-3.85,0-7.7,0-12.06,0v4.92q0,104.76,0,209.51c0,8.18-5.25,13.51-12.85,13.12a12,12,0,0,1-11-10.79c-.09-1.24,0-2.49,0-3.74v-213ZM24.19,60V83.62h47.4V60Z"/><path d="M179.65,203.63v5q0,57.24,0,114.49a11.7,11.7,0,0,1-8.18,11.67,11.19,11.19,0,0,1-13.22-4.24,16.37,16.37,0,0,1-2.41-8.33c-.15-37.91-.1-75.83-.1-113.74v-4.84c-4.11,0-7.94,0-11.76,0-13.73-.07-24.11-10.41-24.16-24.11q-.06-12,0-23.95a23.73,23.73,0,0,1,23.76-23.76c3.85,0,7.71,0,12.16,0v-4.45q0-57.61,0-115.23A11.94,11.94,0,0,1,179.15,8.6a18.5,18.5,0,0,1,.48,5.16q0,56.49,0,113v5.05c3.7,0,7.26,0,10.81,0,15,0,25.1,10.06,25.12,25,0,7.73,0,15.47,0,23.2A23.74,23.74,0,0,1,192,203.62C188,203.66,184.08,203.63,179.65,203.63Zm11.74-24.1V156H143.93v23.51Z"/><path d="M275.49,107.81c-4.46,0-8.43,0-12.41,0a23.74,23.74,0,0,1-23.5-23.64q-.09-12.35,0-24.7A23.72,23.72,0,0,1,263.23,36c4,0,7.92,0,12.27,0,0-8.28-.06-16.23,0-24.17A11.91,11.91,0,0,1,285.59.12,12.1,12.1,0,0,1,299,8.88,15.79,15.79,0,0,1,299.4,13c0,7.48,0,15,0,23H310.2c15,0,25.12,10.05,25.15,25,0,7.74,0,15.47,0,23.2a23.75,23.75,0,0,1-23.54,23.62c-4,0-7.94,0-12.38,0V322.3c0,8.16-5.3,13.48-12.91,13.06a12,12,0,0,1-11-10.85c-.09-1.24,0-2.49,0-3.74q0-104,0-208ZM311.28,60.2h-47.6V83.67h47.6Z"/></g></g></svg>